<mxfile host="65bd71144e">
    <diagram id="nANENjDQoEUrfMPuUWu3" name="Page-1">
        <mxGraphModel dx="819" dy="363" grid="1" gridSize="10" guides="1" tooltips="1" connect="1" arrows="1" fold="1" page="1" pageScale="1" pageWidth="850" pageHeight="1100" math="0" shadow="0">
            <root>
                <mxCell id="0"/>
                <mxCell id="1" parent="0"/>
                <mxCell id="10" value="Player" style="swimlane;whiteSpace=wrap;html=1;" vertex="1" parent="1">
                    <mxGeometry y="80" width="740" height="1150" as="geometry"/>
                </mxCell>
                <mxCell id="12" value="" style="ellipse;html=1;shape=startState;fillColor=#000000;strokeColor=#ff0000;" vertex="1" parent="10">
                    <mxGeometry x="436" y="50" width="30" height="30" as="geometry"/>
                </mxCell>
                <mxCell id="13" value="" style="edgeStyle=orthogonalEdgeStyle;html=1;verticalAlign=bottom;endArrow=open;endSize=8;strokeColor=#ff0000;" edge="1" source="12" parent="10">
                    <mxGeometry relative="1" as="geometry">
                        <mxPoint x="451" y="110" as="targetPoint"/>
                    </mxGeometry>
                </mxCell>
                <mxCell id="16" style="edgeStyle=none;html=1;exitX=0.5;exitY=1;exitDx=0;exitDy=0;entryX=0.5;entryY=0;entryDx=0;entryDy=0;" edge="1" parent="10" source="14" target="15">
                    <mxGeometry relative="1" as="geometry"/>
                </mxCell>
                <mxCell id="14" value="Open&lt;br&gt;Main Menu" style="rounded=1;whiteSpace=wrap;html=1;" vertex="1" parent="10">
                    <mxGeometry x="391" y="110" width="120" height="60" as="geometry"/>
                </mxCell>
                <mxCell id="17" style="edgeStyle=none;html=1;entryX=0.5;entryY=0;entryDx=0;entryDy=0;" edge="1" parent="10" source="15" target="18">
                    <mxGeometry relative="1" as="geometry">
                        <mxPoint x="451" y="280" as="targetPoint"/>
                    </mxGeometry>
                </mxCell>
                <mxCell id="15" value="User chooses option" style="rounded=1;whiteSpace=wrap;html=1;" vertex="1" parent="10">
                    <mxGeometry x="391" y="200" width="120" height="60" as="geometry"/>
                </mxCell>
                <mxCell id="20" style="edgeStyle=none;html=1;entryX=0;entryY=0.5;entryDx=0;entryDy=0;" edge="1" parent="10" source="18" target="21">
                    <mxGeometry relative="1" as="geometry">
                        <mxPoint x="440" y="330" as="targetPoint"/>
                    </mxGeometry>
                </mxCell>
                <mxCell id="53" value="Start Game" style="edgeLabel;html=1;align=center;verticalAlign=middle;resizable=0;points=[];" vertex="1" connectable="0" parent="20">
                    <mxGeometry x="-0.0632" y="-5" relative="1" as="geometry">
                        <mxPoint y="-5" as="offset"/>
                    </mxGeometry>
                </mxCell>
                <mxCell id="51" style="edgeStyle=none;html=1;entryX=0.5;entryY=0;entryDx=0;entryDy=0;" edge="1" parent="10" source="18" target="78">
                    <mxGeometry relative="1" as="geometry">
                        <mxPoint x="451" y="430" as="targetPoint"/>
                    </mxGeometry>
                </mxCell>
                <mxCell id="79" value="Select Level" style="edgeLabel;html=1;align=center;verticalAlign=middle;resizable=0;points=[];" vertex="1" connectable="0" parent="51">
                    <mxGeometry x="-0.0679" y="-4" relative="1" as="geometry">
                        <mxPoint x="4" as="offset"/>
                    </mxGeometry>
                </mxCell>
                <mxCell id="52" style="edgeStyle=none;html=1;entryX=1;entryY=0.5;entryDx=0;entryDy=0;" edge="1" parent="10" source="18" target="56">
                    <mxGeometry relative="1" as="geometry">
                        <mxPoint x="320" y="330" as="targetPoint"/>
                    </mxGeometry>
                </mxCell>
                <mxCell id="54" value="Exit Game" style="edgeLabel;html=1;align=center;verticalAlign=middle;resizable=0;points=[];" vertex="1" connectable="0" parent="52">
                    <mxGeometry x="0.5" y="-4" relative="1" as="geometry">
                        <mxPoint x="27" y="4" as="offset"/>
                    </mxGeometry>
                </mxCell>
                <mxCell id="105" style="edgeStyle=orthogonalEdgeStyle;html=1;exitX=0;exitY=1;exitDx=0;exitDy=0;entryX=1;entryY=0.5;entryDx=0;entryDy=0;" edge="1" parent="10" source="18" target="104">
                    <mxGeometry relative="1" as="geometry">
                        <Array as="points">
                            <mxPoint x="400" y="350"/>
                            <mxPoint x="400" y="630"/>
                        </Array>
                    </mxGeometry>
                </mxCell>
                <mxCell id="106" value="Options&lt;br&gt;menu" style="edgeLabel;html=1;align=center;verticalAlign=middle;resizable=0;points=[];" vertex="1" connectable="0" parent="105">
                    <mxGeometry x="-0.5046" relative="1" as="geometry">
                        <mxPoint as="offset"/>
                    </mxGeometry>
                </mxCell>
                <mxCell id="18" value="choose" style="rhombus;whiteSpace=wrap;html=1;" vertex="1" parent="10">
                    <mxGeometry x="411" y="290" width="80" height="80" as="geometry"/>
                </mxCell>
                <mxCell id="21" value="Quick Save Exists?" style="rhombus;whiteSpace=wrap;html=1;" vertex="1" parent="10">
                    <mxGeometry x="580" y="290" width="90" height="80" as="geometry"/>
                </mxCell>
                <mxCell id="59" style="edgeStyle=none;html=1;entryX=0.5;entryY=0;entryDx=0;entryDy=0;" edge="1" parent="10" source="56" target="61">
                    <mxGeometry relative="1" as="geometry">
                        <mxPoint x="280" y="440" as="targetPoint"/>
                    </mxGeometry>
                </mxCell>
                <mxCell id="60" value="Yes" style="edgeLabel;html=1;align=center;verticalAlign=middle;resizable=0;points=[];" vertex="1" connectable="0" parent="59">
                    <mxGeometry x="-0.2286" y="-3" relative="1" as="geometry">
                        <mxPoint as="offset"/>
                    </mxGeometry>
                </mxCell>
                <mxCell id="64" style="edgeStyle=none;html=1;" edge="1" parent="10" source="56">
                    <mxGeometry relative="1" as="geometry">
                        <mxPoint x="190" y="330" as="targetPoint"/>
                    </mxGeometry>
                </mxCell>
                <mxCell id="65" value="No" style="edgeLabel;html=1;align=center;verticalAlign=middle;resizable=0;points=[];" vertex="1" connectable="0" parent="64">
                    <mxGeometry y="4" relative="1" as="geometry">
                        <mxPoint as="offset"/>
                    </mxGeometry>
                </mxCell>
                <mxCell id="56" value="Confirm disabled?" style="rhombus;whiteSpace=wrap;html=1;" vertex="1" parent="10">
                    <mxGeometry x="240" y="290" width="80" height="80" as="geometry"/>
                </mxCell>
                <mxCell id="68" style="edgeStyle=none;html=1;entryX=0.5;entryY=0;entryDx=0;entryDy=0;" edge="1" parent="10" source="61" target="67">
                    <mxGeometry relative="1" as="geometry"/>
                </mxCell>
                <mxCell id="61" value="Exit Game" style="rounded=1;whiteSpace=wrap;html=1;" vertex="1" parent="10">
                    <mxGeometry x="220" y="450" width="120" height="60" as="geometry"/>
                </mxCell>
                <mxCell id="67" value="" style="ellipse;html=1;shape=endState;fillColor=#000000;strokeColor=#ff0000;" vertex="1" parent="10">
                    <mxGeometry x="265" y="530" width="30" height="30" as="geometry"/>
                </mxCell>
                <mxCell id="69" style="edgeStyle=none;html=1;exitX=1;exitY=0;exitDx=0;exitDy=0;entryX=1;entryY=0.5;entryDx=0;entryDy=0;" edge="1" parent="10" source="67" target="67">
                    <mxGeometry relative="1" as="geometry"/>
                </mxCell>
                <mxCell id="72" value="" style="edgeStyle=none;html=1;entryX=0.5;entryY=0;entryDx=0;entryDy=0;" edge="1" parent="10" source="70" target="73">
                    <mxGeometry relative="1" as="geometry">
                        <mxPoint x="130" y="430" as="targetPoint"/>
                    </mxGeometry>
                </mxCell>
                <mxCell id="70" value="Open &lt;br&gt;confirm menu" style="rounded=1;whiteSpace=wrap;html=1;" vertex="1" parent="10">
                    <mxGeometry x="70" y="300" width="120" height="60" as="geometry"/>
                </mxCell>
                <mxCell id="75" style="edgeStyle=none;html=1;entryX=0;entryY=0.5;entryDx=0;entryDy=0;" edge="1" parent="10" source="73" target="61">
                    <mxGeometry relative="1" as="geometry"/>
                </mxCell>
                <mxCell id="95" style="edgeStyle=none;html=1;" edge="1" parent="10" source="73">
                    <mxGeometry relative="1" as="geometry">
                        <mxPoint x="30" y="480" as="targetPoint"/>
                    </mxGeometry>
                </mxCell>
                <mxCell id="96" value="Cancel" style="edgeLabel;html=1;align=center;verticalAlign=middle;resizable=0;points=[];" vertex="1" connectable="0" parent="95">
                    <mxGeometry y="1" relative="1" as="geometry">
                        <mxPoint as="offset"/>
                    </mxGeometry>
                </mxCell>
                <mxCell id="73" value="Confirm?" style="rhombus;whiteSpace=wrap;html=1;" vertex="1" parent="10">
                    <mxGeometry x="90" y="440" width="80" height="80" as="geometry"/>
                </mxCell>
                <mxCell id="78" value="Open&lt;br&gt;Select level menu" style="rounded=1;whiteSpace=wrap;html=1;" vertex="1" parent="10">
                    <mxGeometry x="391" y="660" width="120" height="60" as="geometry"/>
                </mxCell>
                <mxCell id="86" style="edgeStyle=orthogonalEdgeStyle;html=1;entryX=1;entryY=0.5;entryDx=0;entryDy=0;exitX=1;exitY=0.5;exitDx=0;exitDy=0;" edge="1" parent="10" source="84" target="78">
                    <mxGeometry relative="1" as="geometry">
                        <mxPoint x="380" y="620" as="targetPoint"/>
                        <mxPoint x="380.1428571428571" y="770" as="sourcePoint"/>
                        <Array as="points">
                            <mxPoint x="690" y="850"/>
                            <mxPoint x="690" y="670"/>
                        </Array>
                    </mxGeometry>
                </mxCell>
                <mxCell id="84" value="Delete level file" style="rounded=1;whiteSpace=wrap;html=1;" vertex="1" parent="10">
                    <mxGeometry x="520" y="820" width="120" height="60" as="geometry"/>
                </mxCell>
                <mxCell id="89" style="edgeStyle=orthogonalEdgeStyle;html=1;entryX=0;entryY=0.5;entryDx=0;entryDy=0;exitX=0.5;exitY=1;exitDx=0;exitDy=0;" edge="1" parent="10" source="81" target="99">
                    <mxGeometry relative="1" as="geometry">
                        <mxPoint x="451" y="920" as="targetPoint"/>
                    </mxGeometry>
                </mxCell>
                <mxCell id="91" value="Select Level" style="edgeLabel;html=1;align=center;verticalAlign=middle;resizable=0;points=[];" vertex="1" connectable="0" parent="89">
                    <mxGeometry x="-0.3079" y="-2" relative="1" as="geometry">
                        <mxPoint as="offset"/>
                    </mxGeometry>
                </mxCell>
                <mxCell id="92" style="edgeStyle=none;html=1;entryX=1;entryY=0.5;entryDx=0;entryDy=0;" edge="1" parent="10" source="81" target="93">
                    <mxGeometry relative="1" as="geometry">
                        <mxPoint x="390" y="775" as="targetPoint"/>
                    </mxGeometry>
                </mxCell>
                <mxCell id="81" value="select" style="rhombus;whiteSpace=wrap;html=1;" vertex="1" parent="10">
                    <mxGeometry x="425.5" y="750" width="54.5" height="50" as="geometry"/>
                </mxCell>
                <mxCell id="80" style="edgeStyle=none;html=1;" edge="1" parent="10" source="78" target="81">
                    <mxGeometry relative="1" as="geometry">
                        <mxPoint x="451" y="570" as="targetPoint"/>
                    </mxGeometry>
                </mxCell>
                <mxCell id="82" style="edgeStyle=orthogonalEdgeStyle;html=1;entryX=0.5;entryY=0;entryDx=0;entryDy=0;exitX=1;exitY=0.5;exitDx=0;exitDy=0;" edge="1" parent="10" source="81" target="84">
                    <mxGeometry relative="1" as="geometry">
                        <mxPoint x="320" y="680" as="targetPoint"/>
                        <mxPoint x="410" y="680" as="sourcePoint"/>
                        <Array as="points">
                            <mxPoint x="580" y="775"/>
                        </Array>
                    </mxGeometry>
                </mxCell>
                <mxCell id="83" value="Delete level" style="edgeLabel;html=1;align=center;verticalAlign=middle;resizable=0;points=[];" vertex="1" connectable="0" parent="82">
                    <mxGeometry x="-0.1026" y="-1" relative="1" as="geometry">
                        <mxPoint x="-15" y="-1" as="offset"/>
                    </mxGeometry>
                </mxCell>
                <mxCell id="94" style="edgeStyle=none;html=1;" edge="1" parent="10" source="93" target="97">
                    <mxGeometry relative="1" as="geometry">
                        <mxPoint x="30" y="635" as="targetPoint"/>
                    </mxGeometry>
                </mxCell>
                <mxCell id="93" value="Cancel" style="rounded=1;whiteSpace=wrap;html=1;" vertex="1" parent="10">
                    <mxGeometry x="240" y="745" width="120" height="60" as="geometry"/>
                </mxCell>
                <mxCell id="97" value="" style="html=1;points=[[0,0,0,0,5],[0,1,0,0,-5],[1,0,0,0,5],[1,1,0,0,-5]];perimeter=orthogonalPerimeter;outlineConnect=0;targetShapes=umlLifeline;portConstraint=eastwest;newEdgeStyle={&quot;curved&quot;:0,&quot;rounded&quot;:0};" vertex="1" parent="10">
                    <mxGeometry x="20" y="460" width="10" height="440" as="geometry"/>
                </mxCell>
                <mxCell id="98" style="edgeStyle=orthogonalEdgeStyle;html=1;rounded=1;entryX=0;entryY=0.439;entryDx=0;entryDy=0;entryPerimeter=0;curved=0;" edge="1" parent="10" source="97" target="14">
                    <mxGeometry relative="1" as="geometry">
                        <Array as="points">
                            <mxPoint x="10" y="585"/>
                            <mxPoint x="10" y="136"/>
                        </Array>
                    </mxGeometry>
                </mxCell>
                <mxCell id="99" value="Set&lt;br&gt;Quick save" style="rounded=1;whiteSpace=wrap;html=1;" vertex="1" parent="10">
                    <mxGeometry x="520" y="910" width="120" height="60" as="geometry"/>
                </mxCell>
                <mxCell id="107" style="edgeStyle=none;html=1;" edge="1" parent="10" source="104" target="108">
                    <mxGeometry relative="1" as="geometry">
                        <mxPoint x="190" y="630" as="targetPoint"/>
                    </mxGeometry>
                </mxCell>
                <mxCell id="104" value="Open&lt;br&gt;Options menu" style="rounded=1;whiteSpace=wrap;html=1;" vertex="1" parent="10">
                    <mxGeometry x="240" y="600" width="120" height="60" as="geometry"/>
                </mxCell>
                <mxCell id="109" value="" style="edgeStyle=none;html=1;" edge="1" parent="10" source="108" target="97">
                    <mxGeometry relative="1" as="geometry">
                        <Array as="points">
                            <mxPoint x="80" y="630"/>
                        </Array>
                    </mxGeometry>
                </mxCell>
                <mxCell id="110" value="Exit&lt;br&gt;Options" style="edgeLabel;html=1;align=center;verticalAlign=middle;resizable=0;points=[];" vertex="1" connectable="0" parent="109">
                    <mxGeometry x="0.1455" y="-1" relative="1" as="geometry">
                        <mxPoint x="12" y="1" as="offset"/>
                    </mxGeometry>
                </mxCell>
                <mxCell id="111" style="edgeStyle=none;html=1;" edge="1" parent="10" source="108">
                    <mxGeometry relative="1" as="geometry">
                        <mxPoint x="160" y="840" as="targetPoint"/>
                    </mxGeometry>
                </mxCell>
                <mxCell id="112" value="Other&lt;br&gt;options" style="edgeLabel;html=1;align=center;verticalAlign=middle;resizable=0;points=[];" vertex="1" connectable="0" parent="111">
                    <mxGeometry x="-0.4227" y="-1" relative="1" as="geometry">
                        <mxPoint as="offset"/>
                    </mxGeometry>
                </mxCell>
                <mxCell id="108" value="select" style="rhombus;whiteSpace=wrap;html=1;" vertex="1" parent="10">
                    <mxGeometry x="120" y="590" width="80" height="80" as="geometry"/>
                </mxCell>
                <mxCell id="11" value="System" style="swimlane;whiteSpace=wrap;html=1;" vertex="1" parent="1">
                    <mxGeometry x="750" y="80" width="450" height="1150" as="geometry"/>
                </mxCell>
                <mxCell id="30" style="edgeStyle=none;html=1;entryX=0;entryY=0.5;entryDx=0;entryDy=0;" edge="1" parent="11" source="26" target="29">
                    <mxGeometry relative="1" as="geometry"/>
                </mxCell>
                <mxCell id="26" value="Initialize new game" style="rounded=1;whiteSpace=wrap;html=1;" vertex="1" parent="11">
                    <mxGeometry x="130" y="300" width="120" height="60" as="geometry"/>
                </mxCell>
                <mxCell id="31" style="edgeStyle=orthogonalEdgeStyle;html=1;entryX=0;entryY=0.5;entryDx=0;entryDy=0;" edge="1" parent="11" source="28" target="29">
                    <mxGeometry relative="1" as="geometry"/>
                </mxCell>
                <mxCell id="28" value="Load Quick Save" style="rounded=1;whiteSpace=wrap;html=1;" vertex="1" parent="11">
                    <mxGeometry x="130" y="390" width="120" height="60" as="geometry"/>
                </mxCell>
                <mxCell id="29" value="Start Game" style="rounded=1;whiteSpace=wrap;html=1;" vertex="1" parent="11">
                    <mxGeometry x="330" y="300" width="120" height="60" as="geometry"/>
                </mxCell>
                <mxCell id="50" value="Start Playing" style="rounded=1;whiteSpace=wrap;html=1;" vertex="1" parent="11">
                    <mxGeometry x="235" y="650" width="120" height="60" as="geometry"/>
                </mxCell>
                <mxCell id="35" style="edgeStyle=orthogonalEdgeStyle;html=1;entryX=0.5;entryY=0;entryDx=0;entryDy=0;" edge="1" parent="11" source="29" target="50">
                    <mxGeometry relative="1" as="geometry">
                        <mxPoint x="-290" y="674" as="targetPoint"/>
                        <Array as="points">
                            <mxPoint x="390" y="600"/>
                            <mxPoint x="290" y="600"/>
                            <mxPoint x="290" y="650"/>
                        </Array>
                    </mxGeometry>
                </mxCell>
                <mxCell id="102" style="edgeStyle=none;html=1;entryX=0;entryY=0.5;entryDx=0;entryDy=0;" edge="1" parent="11" source="101" target="28">
                    <mxGeometry relative="1" as="geometry"/>
                </mxCell>
                <mxCell id="101" value="" style="rhombus;whiteSpace=wrap;html=1;" vertex="1" parent="11">
                    <mxGeometry x="40" y="395" width="60" height="50" as="geometry"/>
                </mxCell>
                <mxCell id="23" style="edgeStyle=orthogonalEdgeStyle;html=1;entryX=0;entryY=0.5;entryDx=0;entryDy=0;exitX=1;exitY=0.5;exitDx=0;exitDy=0;" edge="1" parent="1" source="21" target="26">
                    <mxGeometry relative="1" as="geometry">
                        <mxPoint x="830" y="350" as="targetPoint"/>
                        <Array as="points">
                            <mxPoint x="770" y="410"/>
                            <mxPoint x="770" y="410"/>
                        </Array>
                    </mxGeometry>
                </mxCell>
                <mxCell id="24" value="No" style="edgeLabel;html=1;align=center;verticalAlign=middle;resizable=0;points=[];" vertex="1" connectable="0" parent="23">
                    <mxGeometry relative="1" as="geometry">
                        <mxPoint x="-35" as="offset"/>
                    </mxGeometry>
                </mxCell>
                <mxCell id="25" style="edgeStyle=orthogonalEdgeStyle;html=1;exitX=0.5;exitY=1;exitDx=0;exitDy=0;entryX=0;entryY=0.5;entryDx=0;entryDy=0;" edge="1" parent="1" source="21" target="101">
                    <mxGeometry relative="1" as="geometry">
                        <mxPoint x="770" y="500" as="targetPoint"/>
                        <Array as="points">
                            <mxPoint x="625" y="500"/>
                        </Array>
                    </mxGeometry>
                </mxCell>
                <mxCell id="27" value="Yes" style="edgeLabel;html=1;align=center;verticalAlign=middle;resizable=0;points=[];" vertex="1" connectable="0" parent="25">
                    <mxGeometry x="-0.1" y="-3" relative="1" as="geometry">
                        <mxPoint x="25" y="-3" as="offset"/>
                    </mxGeometry>
                </mxCell>
                <mxCell id="100" style="edgeStyle=orthogonalEdgeStyle;html=1;entryX=0.5;entryY=1;entryDx=0;entryDy=0;" edge="1" parent="1" source="99" target="101">
                    <mxGeometry relative="1" as="geometry">
                        <mxPoint x="850" y="880" as="targetPoint"/>
                    </mxGeometry>
                </mxCell>
            </root>
        </mxGraphModel>
    </diagram>
</mxfile>